Coordinates
version=1
nRows=11
nColumns=63
inDegrees=yes

Units are S.I. units (second, meters, Newtons, ...)
If the header above contains a line with 'inDegrees', this indicates whether rotational values are in degrees (yes) or radians (no).

endheader
time	pelvis_tilt	pelvis_list	pelvis_rotation	pelvis_tx	pelvis_ty	pelvis_tz	hip_flexion_r	hip_adduction_r	hip_rotation_r	knee_angle_r	knee_angle_r_beta	ankle_angle_r	subtalar_angle_r	mtp_angle_r	hip_flexion_l	hip_adduction_l	hip_rotation_l	knee_angle_l	knee_angle_l_beta	ankle_angle_l	subtalar_angle_l	mtp_angle_l	L5_S1_Flex_Ext	L5_S1_Lat_Bending	L5_S1_axial_rotation	L4_L5_Flex_Ext	L4_L5_Lat_Bending	L4_L5_axial_rotation	L3_L4_Flex_Ext	L3_L4_Lat_Bending	L3_L4_axial_rotation	L2_L3_Flex_Ext	L2_L3_Lat_Bending	L2_L3_axial_rotation	L1_L2_Flex_Ext	L1_L2_Lat_Bending	L1_L2_axial_rotation	L1_T12_Flex_Ext	L1_T12_Lat_Bending	L1_T12_axial_rotation	Abs_r3	Abs_r2	Abs_r1	Abs_t1	Abs_t2	neck_flexion	neck_bending	neck_rotation	arm_flex_r	arm_add_r	arm_rot_r	elbow_flex_r	pro_sup_r	wrist_flex_r	wrist_dev_r	arm_flex_l	arm_add_l	arm_rot_l	elbow_flex_l	pro_sup_l	wrist_flex_l	wrist_dev_l
3.377358	-5.200129	-2.053770	92.535095	0.253460	0.856294	0.740035	4.373717	-1.636224	2.206776	6.231440	0.108759	30.607287	-8.328123	0.000000	8.396769	2.156082	-1.344283	11.824355	0.206374	35.501901	5.743274	0.000000	0.310705	-0.231166	0.721641	0.577011	-0.307450	0.766743	0.510458	-0.562056	0.766743	0.355105	-0.562056	0.631435	0.288521	-0.471393	0.586333	0.177537	-0.358076	0.541230	2.219337	-2.614992	4.013548	0.000000	0.000000	27.644195	-0.486951	-13.949088	8.389244	-12.907375	52.469605	50.807692	42.368242	7.507535	8.164498	21.223943	-11.981884	70.205567	51.324537	62.607995	12.199576	5.164564
3.396226	-5.117161	-2.048966	92.523061	0.253438	0.856343	0.740000	4.391681	-1.563041	2.337339	6.108928	0.106621	30.744491	-8.130957	0.000000	8.360117	2.075244	-1.156290	11.770113	0.205427	35.520999	5.578423	0.000000	0.311591	-0.221971	0.742501	0.578655	-0.295222	0.788908	0.511913	-0.539701	0.788908	0.356117	-0.539701	0.649689	0.289343	-0.452644	0.603282	0.178043	-0.343833	0.556876	2.225662	-2.510983	4.129570	0.000000	0.000000	27.648831	-0.570547	-14.110249	8.295780	-13.039827	52.429741	50.991659	41.573962	7.291882	7.971323	21.039464	-11.891677	70.014668	51.337671	62.615021	11.698166	4.907929
3.415094	-5.014379	-2.043251	92.507044	0.253381	0.856401	0.739970	4.405457	-1.464435	2.569537	5.981677	0.104400	30.817536	-8.106111	0.000000	8.332286	1.970641	-1.016301	11.730199	0.204731	35.559655	5.485246	0.000000	0.312966	-0.209189	0.752579	0.581209	-0.278221	0.799616	0.514172	-0.508622	0.799616	0.357689	-0.508622	0.658507	0.290620	-0.426578	0.611471	0.178829	-0.324034	0.564434	2.235483	-2.366387	4.185620	0.000000	0.000000	27.651517	-0.634925	-14.190339	8.224852	-13.179773	52.362919	51.175507	41.632824	7.107807	7.693163	20.818939	-11.808461	69.746069	51.368340	62.726130	11.129123	4.559796
3.433962	-4.892400	-2.039776	92.523070	0.253236	0.856467	0.739943	4.423630	-1.354881	2.700750	5.880171	0.102628	30.889766	-8.025947	0.000000	8.322690	1.850681	-0.873778	11.710392	0.204385	35.613767	5.437818	0.000000	0.314891	-0.193122	0.741415	0.584783	-0.256853	0.787753	0.517334	-0.469558	0.787753	0.359889	-0.469558	0.648738	0.292407	-0.393815	0.602400	0.179929	-0.299147	0.556061	2.249233	-2.184639	4.123528	0.000000	0.000000	27.652980	-0.676375	-14.182520	8.204450	-13.324833	52.349486	51.333017	42.328502	6.981989	7.344220	20.560915	-11.741896	69.361365	51.423665	63.006860	10.543506	4.117167
3.452830	-4.763480	-2.037731	92.524538	0.253101	0.856539	0.739904	4.440742	-1.233521	2.907504	5.793360	0.101113	30.903181	-8.090459	0.000000	8.324341	1.712960	-0.849644	11.710424	0.204385	35.689556	5.519753	0.000000	0.317420	-0.175294	0.717281	0.589480	-0.233141	0.762111	0.521489	-0.426209	0.762111	0.362779	-0.426209	0.627621	0.294756	-0.357459	0.582791	0.181374	-0.271530	0.537961	2.267298	-1.982957	3.989303	0.000000	0.000000	27.654967	-0.670956	-14.058480	8.239814	-13.463094	52.410030	51.440123	43.484321	6.970251	6.920355	20.270124	-11.704726	68.859939	51.512363	63.441317	9.949083	3.572286
3.471698	-4.634595	-2.036308	92.545522	0.252921	0.856618	0.739844	4.455429	-1.119202	3.014462	5.737744	0.100143	30.928075	-8.096313	0.000000	8.339654	1.572936	-0.894938	11.735707	0.204827	35.785734	5.695477	0.000000	0.320335	-0.156492	0.673903	0.594894	-0.208135	0.716022	0.526278	-0.380495	0.716022	0.366111	-0.380495	0.589665	0.297463	-0.319119	0.547546	0.183039	-0.242406	0.505427	2.288119	-1.770271	3.748048	0.000000	0.000000	27.658828	-0.614176	-13.817632	8.295991	-13.568392	52.418863	51.486259	45.397768	7.142133	6.335740	19.905097	-11.692838	68.130711	51.664886	63.997333	9.391011	3.033822
3.490566	-4.512792	-2.034605	92.565452	0.252737	0.856708	0.739760	4.469573	-1.013019	3.047282	5.721709	0.099863	30.944916	-8.103574	0.000000	8.366846	1.435097	-1.043659	11.789429	0.205764	35.884564	5.948818	0.000000	0.323482	-0.137998	0.623298	0.600739	-0.183537	0.662254	0.531449	-0.335528	0.662254	0.369708	-0.335528	0.545385	0.300386	-0.281405	0.506429	0.184838	-0.213759	0.467473	2.310602	-1.561060	3.466595	0.000000	0.000000	27.663717	-0.550794	-13.541833	8.322277	-13.643723	52.288544	51.511080	47.658053	7.529623	5.696551	19.509047	-11.696484	67.267570	51.848130	64.687058	8.908392	2.425829
3.509434	-4.398626	-2.022677	92.601652	0.252519	0.856825	0.739670	4.465183	-0.918960	2.969761	5.740450	0.100190	30.956013	-8.066482	0.000000	8.401729	1.304638	-1.258500	11.884484	0.207423	35.984888	6.231379	0.000000	0.324761	-0.118947	0.557617	0.603114	-0.158200	0.592468	0.533551	-0.289208	0.592468	0.371170	-0.289208	0.487915	0.301573	-0.242557	0.453063	0.185569	-0.184249	0.418212	2.319738	-1.345555	3.101296	0.000000	0.000000	27.671831	-0.436552	-13.130467	8.343315	-13.680845	52.058676	51.494606	50.462909	8.036575	4.805084	19.052251	-11.720995	66.217348	52.065909	65.312366	8.532083	1.792377
3.528302	-4.312682	-2.024356	92.652552	0.252283	0.856927	0.739525	4.466389	-0.854775	2.822235	5.804117	0.101301	30.956159	-8.041318	0.000000	8.459593	1.200188	-1.580042	12.012714	0.209661	36.077829	6.574714	0.000000	0.327591	-0.103143	0.492340	0.608369	-0.137180	0.523112	0.538199	-0.250781	0.523112	0.374403	-0.250781	0.430798	0.304201	-0.210329	0.400027	0.187185	-0.159768	0.369255	2.339947	-1.166772	2.738249	0.000000	0.000000	27.685500	-0.365908	-12.773536	8.238885	-13.648564	51.455957	51.491725	53.609366	8.635265	3.858160	18.564525	-11.755032	65.083388	52.320105	65.738878	8.297453	1.232926
3.547170	-4.249033	-2.039235	92.715876	0.252038	0.857005	0.739310	4.464551	-0.808188	2.685834	5.895935	0.102903	30.908435	-8.123872	0.000000	8.536060	1.108452	-2.069571	12.173140	0.212461	36.176251	7.055976	0.000000	0.331240	-0.089902	0.430495	0.615146	-0.119570	0.457401	0.544194	-0.218588	0.457401	0.378574	-0.218588	0.376683	0.307589	-0.183328	0.349777	0.189271	-0.139258	0.322871	2.366014	-1.016991	2.394283	0.000000	0.000000	27.705138	-0.374298	-12.503817	8.039158	-13.554476	50.520952	51.489995	56.942273	9.285228	2.973483	18.060053	-11.802540	63.900080	52.602455	66.002342	8.144128	0.730857
3.566038	-4.216274	-2.071145	92.778682	0.251796	0.857047	0.739017	4.476859	-0.800714	2.359979	6.042040	0.105453	30.893237	-7.991602	0.000000	8.625894	1.045714	-2.657374	12.351875	0.215581	36.258386	7.576132	0.000000	0.336153	-0.080269	0.374586	0.624270	-0.106758	0.397998	0.552266	-0.195167	0.397998	0.384190	-0.195167	0.327763	0.312152	-0.163685	0.304351	0.192078	-0.124337	0.280939	2.401109	-0.908023	2.083334	0.000000	0.000000	27.735662	-0.409806	-12.272424	7.806413	-13.415560	49.443128	51.440313	60.081792	9.916348	2.251009	17.542175	-11.856424	62.639607	52.919873	66.240465	8.069243	0.304492
